<svg id="Capa_1" data-name="Capa 1" xmlns="http://www.w3.org/2000/svg" viewBox="0 0 452.48 497.98"><defs><style>.cls-1{fill:#1e3d7f;}</style></defs><path class="cls-1" d="M312.59,157.2q-21.82,0-28.8,17.67t-7,52.57q0,35.34,7,53t28.8,17.67q21.38,0,28.36-17.67t7-53q0-34.89-7-52.57T312.59,157.2Zm24.52,121.74c-4,10.13-12,15.06-24.52,15.06-12.8,0-21-4.93-25-15.06-4.44-11.24-6.7-28.56-6.7-51.5,0-22.64,2.26-39.82,6.7-51.06,4-10.13,12.16-15.06,25-15.06,12.49,0,20.52,4.93,24.52,15.06,4.44,11.26,6.7,28.44,6.7,51.06C343.81,250.36,341.55,267.69,337.11,278.94Z"/><path class="cls-1" d="M84.54,460.23H27.2l-11.54,31H7.23L51.65,373.11h8.61l44.25,118.12H96.07Zm-2.42-6.54L56,383.27,29.61,453.69Z"/><path class="cls-1" d="M210.4,491.23h-7.75L131.71,383.1V491.23H124V370.53h7.75l70.94,107.78V370.53h7.75ZM151.94,352.1a11.13,11.13,0,0,1,8.53-3.61,11.33,11.33,0,0,1,5.16,1.12,28.61,28.61,0,0,1,5,3.35,28.44,28.44,0,0,0,4.39,3,9.37,9.37,0,0,0,4.39.95,6.8,6.8,0,0,0,5-2.07A9.87,9.87,0,0,0,187,349h5.17a15.54,15.54,0,0,1-4.13,9.91,12.71,12.71,0,0,1-14.38,2.49,36.49,36.49,0,0,1-5.25-3.44,32.06,32.06,0,0,0-4.14-2.84,8.06,8.06,0,0,0-4-.95q-6.36,0-7.4,8.09h-5.16Q148.59,355.72,151.94,352.1Z"/><path class="cls-1" d="M262.57,484.77a54.92,54.92,0,0,1-21-21.95Q234,448.71,234,431T241.56,399a55.07,55.07,0,0,1,21-21.86,61.82,61.82,0,0,1,60.26,0,55,55,0,0,1,21,21.86q7.57,14,7.57,31.94,0,17.75-7.57,31.86a54.85,54.85,0,0,1-21,21.95,61.89,61.89,0,0,1-60.26,0Zm56-5.77a47.5,47.5,0,0,0,18.16-19.11q6.63-12.39,6.63-28.93,0-16.69-6.63-29.1a47.5,47.5,0,0,0-18.16-19.11,53.07,53.07,0,0,0-51.66,0,48.11,48.11,0,0,0-18.25,19.11q-6.72,12.4-6.71,29.1,0,16.53,6.71,28.93A48.11,48.11,0,0,0,266.87,479a53,53,0,0,0,51.66,0Z"/><path class="cls-1" d="M389.29,488.3a33.78,33.78,0,0,1-13.69-11.19A31.39,31.39,0,0,1,370,461.44h8.09A29.25,29.25,0,0,0,387,478.31q7.48,7.41,22.81,7.41a34.77,34.77,0,0,0,15.59-3.28,24.77,24.77,0,0,0,10.24-8.95,23,23,0,0,0,3.62-12.57q0-8.78-4.22-13.94a26.19,26.19,0,0,0-10.51-7.75,152.29,152.29,0,0,0-17-5.51,136.72,136.72,0,0,1-18.85-6.2A29.92,29.92,0,0,1,376.64,418q-4.9-6.45-4.91-17.65a28.72,28.72,0,0,1,4.56-15.75,31.42,31.42,0,0,1,13-11.28,43.79,43.79,0,0,1,19.46-4.13q16,0,25.83,7.92t11.71,19.46H438a25.62,25.62,0,0,0-4.56-9.47,26.81,26.81,0,0,0-10-8,34.53,34.53,0,0,0-15.41-3.18q-12.06,0-20.32,6.62t-8.26,17.65q0,8.79,4.3,14a27.29,27.29,0,0,0,10.59,7.92,125,125,0,0,0,17,5.42,150.74,150.74,0,0,1,18.86,6.28,29.58,29.58,0,0,1,11.88,9.47q4.9,6.47,4.9,17.48a29.45,29.45,0,0,1-4.3,15.32A32.25,32.25,0,0,1,430,487.87q-8.34,4.56-20.23,4.56A47.76,47.76,0,0,1,389.29,488.3Z"/><path class="cls-1" d="M215.9,355.55h5.54a104.41,104.41,0,0,1-7.67-9.22q-32.07-43.41-32.06-118.89t32.06-118.66q32.07-43.2,98.82-43.2,66.32,0,98.6,43.41t32.28,118.45q0,75.48-32.28,118.89a104.9,104.9,0,0,1-7.72,9.22H409c1.89-2.17,3.72-4.41,5.47-6.76,22-29.54,33.09-70.36,33.09-121.35,0-50.68-11.13-91.36-33.1-120.91C392.24,76.63,358,61.46,312.59,61.46c-45.67,0-80,15.1-102.13,44.86-21.81,29.38-32.88,70.14-32.88,121.12s11.06,91.81,32.88,121.34C212.19,351.13,214,353.38,215.9,355.55Z"/><polygon class="cls-1" points="53.73 355.55 57.85 355.55 57.85 163.31 11.61 163.31 11.61 72.57 159.51 72.57 159.51 335.98 163.63 335.98 163.63 68.44 7.49 68.44 7.49 167.43 53.73 167.43 53.73 355.55"/><path class="cls-1" d="M35.5,15.29V47.4H33.4V19.68L21.06,47.4H19.38L7,19.68V47.4H4.89V15.29H7.13L20.22,44.64,33.31,15.29Z"/><path class="cls-1" d="M61.82,39H46.26L43.12,47.4H40.83L52.89,15.34h2.34l12,32.06H65Zm-.65-1.78L54.06,18.09,46.91,37.21ZM58.08,7.44l-9.16,5.79V11.5l9.16-6.12Z"/><path class="cls-1" d="M76.45,46.61a9.07,9.07,0,0,1-3.71-3,8.48,8.48,0,0,1-1.52-4.26h2.19a8,8,0,0,0,2.41,4.59q2,2,6.19,2A9.48,9.48,0,0,0,86.24,45,6.77,6.77,0,0,0,89,42.59a6.28,6.28,0,0,0,1-3.42,5.76,5.76,0,0,0-1.15-3.78A7.05,7.05,0,0,0,86,33.28a43.47,43.47,0,0,0-4.6-1.49,37,37,0,0,1-5.12-1.68A8,8,0,0,1,73,27.51a7.72,7.72,0,0,1-1.34-4.79,7.86,7.86,0,0,1,1.24-4.28,8.55,8.55,0,0,1,3.53-3.06,11.85,11.85,0,0,1,5.28-1.12,10.87,10.87,0,0,1,7,2.15,8.39,8.39,0,0,1,3.17,5.28H89.68a7,7,0,0,0-1.24-2.57A7.29,7.29,0,0,0,85.73,17a9.31,9.31,0,0,0-4.18-.87A8.56,8.56,0,0,0,76,17.88a5.85,5.85,0,0,0-2.24,4.79A5.82,5.82,0,0,0,75,26.48a7.28,7.28,0,0,0,2.87,2.15,33.07,33.07,0,0,0,4.6,1.48,41.09,41.09,0,0,1,5.12,1.7,8,8,0,0,1,3.23,2.57,7.66,7.66,0,0,1,1.33,4.75,8,8,0,0,1-1.17,4.16,8.79,8.79,0,0,1-3.43,3.2A11.32,11.32,0,0,1,82,47.73,13,13,0,0,1,76.45,46.61Z"/><path class="cls-1" d="M133.64,18.93q4.52,4.35,4.51,12.11T133.64,43.1q-4.51,4.31-12.83,4.3H111.6V14.59h9.21Q129.14,14.59,133.64,18.93Zm-1.52,22.84Q136,37.92,136,31t-3.88-10.8c-2.58-2.58-6.36-3.88-11.31-3.88h-7.1V45.63h7.1C125.76,45.63,129.54,44.34,132.12,41.77Z"/><path class="cls-1" d="M146.61,16.36v13.7H159.7v1.78H146.61V45.63H161.1V47.4H144.51V14.59H161.1v1.77Z"/></svg>