<svg id="Capa_1" data-name="Capa 1" xmlns="http://www.w3.org/2000/svg" viewBox="0 0 452.48 497.98"><defs><style>.cls-1{fill:#fff;}</style></defs><path class="cls-1" d="M312.82,157q-21.88,0-28.87,17.71t-7,52.72q0,35.43,7,53.15t28.87,17.71q21.44,0,28.43-17.71t7-53.15q0-35-7-52.72T312.82,157ZM337.41,279c-4,10.16-12.06,15.1-24.59,15.1-12.83,0-21-4.94-25-15.1-4.45-11.27-6.71-28.64-6.71-51.63,0-22.71,2.26-39.93,6.71-51.2,4-10.16,12.2-15.1,25-15.1,12.53,0,20.57,4.94,24.59,15.1,4.45,11.28,6.71,28.51,6.71,51.2C344.12,250.37,341.86,267.74,337.41,279Z"/><path class="cls-1" d="M84.16,460.8H26.67L15.1,491.88H6.64L51.18,373.44h8.63l44.37,118.44H95.72Zm-2.42-6.56L55.5,383.63,29.08,454.24Z"/><path class="cls-1" d="M210.36,491.88h-7.77L131.46,383.46V491.88h-7.77v-121h7.77l71.13,108.08V370.85h7.77Zm-58.62-139.5a11.16,11.16,0,0,1,8.55-3.62,11.41,11.41,0,0,1,5.18,1.12,29.14,29.14,0,0,1,5,3.36,29.36,29.36,0,0,0,4.4,3,9.44,9.44,0,0,0,4.4.94,6.82,6.82,0,0,0,5-2.07,9.94,9.94,0,0,0,2.59-5.87h5.18a15.54,15.54,0,0,1-4.15,9.93,11.81,11.81,0,0,1-8.8,3.71,12,12,0,0,1-5.61-1.21,35.88,35.88,0,0,1-5.27-3.45,33.35,33.35,0,0,0-4.14-2.85,8.15,8.15,0,0,0-4-.95q-6.39,0-7.43,8.12h-5.17Q148.38,356,151.74,352.38Z"/><path class="cls-1" d="M262.67,485.4a55,55,0,0,1-21.07-22A66.51,66.51,0,0,1,234,431.45q0-18,7.59-32a55.27,55.27,0,0,1,21.07-21.93,62,62,0,0,1,60.42,0,55.17,55.17,0,0,1,21.06,21.93q7.61,14.07,7.6,32,0,17.79-7.6,31.94a54.94,54.94,0,0,1-21.06,22,62,62,0,0,1-60.42,0Zm56.11-5.78A47.58,47.58,0,0,0,337,460.45q6.64-12.42,6.65-29,0-16.74-6.65-29.18a47.62,47.62,0,0,0-18.21-19.16,53.2,53.2,0,0,0-51.8,0,48.23,48.23,0,0,0-18.3,19.16q-6.74,12.44-6.73,29.18,0,16.57,6.73,29A48.19,48.19,0,0,0,267,479.62a53.2,53.2,0,0,0,51.8,0Z"/><path class="cls-1" d="M389.73,488.94A33.76,33.76,0,0,1,376,477.72,31.46,31.46,0,0,1,370.39,462h8.12a29.35,29.35,0,0,0,8.89,16.92q7.52,7.43,22.87,7.42a34.88,34.88,0,0,0,15.63-3.28,24.86,24.86,0,0,0,10.27-9,23,23,0,0,0,3.63-12.6q0-8.81-4.23-14A26.17,26.17,0,0,0,425,439.74a152.82,152.82,0,0,0-17-5.53,136.64,136.64,0,0,1-18.9-6.21A30,30,0,0,1,377,418.42q-4.92-6.48-4.92-17.7a28.71,28.71,0,0,1,4.58-15.8,31.36,31.36,0,0,1,13-11.3,43.71,43.71,0,0,1,19.51-4.15q16,0,25.89,7.94t11.74,19.51h-8.28a25.6,25.6,0,0,0-4.58-9.49,26.84,26.84,0,0,0-10-8,34.6,34.6,0,0,0-15.45-3.19q-12.09,0-20.37,6.64t-8.29,17.7q0,8.81,4.32,14.07a27.24,27.24,0,0,0,10.61,7.94,123.79,123.79,0,0,0,17,5.44,150.68,150.68,0,0,1,18.9,6.3,29.56,29.56,0,0,1,11.91,9.49q4.92,6.48,4.92,17.53a29.6,29.6,0,0,1-4.31,15.36,32.4,32.4,0,0,1-12.69,11.83q-8.37,4.58-20.29,4.57A47.82,47.82,0,0,1,389.73,488.94Z"/><path class="cls-1" d="M215.88,355.83h5.55a103.17,103.17,0,0,1-7.69-9.24q-32.16-43.51-32.15-119.2t32.15-119q32.14-43.31,99.08-43.31,66.49,0,98.86,43.53t32.37,118.77q0,75.67-32.37,119.2a105.29,105.29,0,0,1-7.73,9.24h5.57c1.89-2.17,3.73-4.42,5.48-6.77,22-29.62,33.19-70.55,33.19-121.67,0-50.83-11.17-91.62-33.19-121.24C392.69,76.17,358.31,61,312.82,61c-45.79,0-80.24,15.13-102.4,45-21.87,29.46-33,70.32-33,121.45s11.09,92.05,33,121.66Q213,352.57,215.88,355.83Z"/><polygon class="cls-1" points="53.27 355.83 57.4 355.83 57.4 163.08 11.03 163.08 11.03 72.09 159.33 72.09 159.33 336.21 163.46 336.21 163.46 67.96 6.9 67.96 6.9 167.21 53.27 167.21 53.27 355.83"/><path class="cls-1" d="M35,14.66v32.2H32.88V19.07L20.51,46.86H18.82L6.4,19.07V46.86H4.29V14.66H6.54L19.67,44.1,32.79,14.66Z"/><path class="cls-1" d="M61.38,38.43H45.77l-3.14,8.43H40.34L52.43,14.71h2.34l12,32.15h-2.3Zm-.66-1.79L53.6,17.47,46.43,36.64ZM57.63,6.79,48.44,12.6V10.87l9.19-6.14Z"/><path class="cls-1" d="M76.05,46.06a9.2,9.2,0,0,1-3.73-3,8.57,8.57,0,0,1-1.52-4.27H73a8,8,0,0,0,2.42,4.6q2,2,6.21,2a9.39,9.39,0,0,0,4.24-.89A6.72,6.72,0,0,0,88.66,42a6.28,6.28,0,0,0,1-3.42,5.77,5.77,0,0,0-1.15-3.79,7,7,0,0,0-2.86-2.11A40.57,40.57,0,0,0,81,31.21a38,38,0,0,1-5.13-1.69,8.11,8.11,0,0,1-3.28-2.6,7.76,7.76,0,0,1-1.34-4.81,7.75,7.75,0,0,1,1.24-4.28,8.53,8.53,0,0,1,3.54-3.07,11.91,11.91,0,0,1,5.3-1.13,10.85,10.85,0,0,1,7,2.16,8.36,8.36,0,0,1,3.18,5.29H89.31a6.82,6.82,0,0,0-1.24-2.57,7.08,7.08,0,0,0-2.72-2.18,9.35,9.35,0,0,0-4.19-.87,8.57,8.57,0,0,0-5.53,1.8,5.87,5.87,0,0,0-2.25,4.81,5.85,5.85,0,0,0,1.17,3.82A7.38,7.38,0,0,0,77.43,28a33,33,0,0,0,4.62,1.48,39,39,0,0,1,5.13,1.71,8.12,8.12,0,0,1,3.24,2.58,7.69,7.69,0,0,1,1.33,4.76,8.07,8.07,0,0,1-1.17,4.17A8.8,8.8,0,0,1,87.13,46a11.29,11.29,0,0,1-5.5,1.24A13,13,0,0,1,76.05,46.06Z"/><path class="cls-1" d="M133.39,18.32q4.53,4.35,4.53,12.14c0,5.18-1.51,9.22-4.53,12.09s-7.3,4.31-12.86,4.31h-9.24V14h9.24Q128.87,14,133.39,18.32Zm-1.52,22.89q3.88-3.85,3.89-10.75t-3.89-10.83q-3.89-3.88-11.34-3.89H113.4V45.08h7.13Q128,45.08,131.87,41.21Z"/><path class="cls-1" d="M146.4,15.74V29.47h13.12v1.78H146.4V45.08h14.53v1.78H144.29V14h16.64v1.78Z"/></svg>