<svg id="Capa_1" data-name="Capa 1" xmlns="http://www.w3.org/2000/svg" viewBox="0 0 1090.54 1454.28"><defs><style>.cls-1{fill:none;stroke:#1e3d7f;stroke-miterlimit:10;stroke-width:2px;}</style></defs><polygon class="cls-1" points="847.31 725.48 847.25 725.53 847.22 725.61 847.31 725.48"/><path class="cls-1" d="M550.31,48.58c24.61,3,41.33-4.74,37.06-16.33C583.1,22.74,561.69,13,539.59,9.52,517,6.8,499.67,11.68,501.3,21.61,502.56,33.55,524.63,46.13,550.31,48.58Z"/><path class="cls-1" d="M682.76,75.42c19.48,6.72,28.45,3.26,20.09-7.08-8.27-8.16-28.16-20.11-45.42-27.94-18.52-7.2-29-6.45-23.3,2.62C639.68,54.1,661.91,69.19,682.76,75.42Z"/><path class="cls-1" d="M508.16,103.57c1.14,21.44,25.65,41.07,54.17,42.82,27.83,2.2,47.71-13.64,44.45-34.59-3.4-19.25-27-36.42-52.61-39.18C527.71,70.39,507,83.81,508.16,103.57Z"/><path class="cls-1" d="M573.23,441.53c30.78.12,55-25.07,54.47-56.07-.88-30.83-25.87-56.3-56.21-57.23-30.89-.71-55.87,24-55.67,55.32C516,415.34,541.88,441.43,573.23,441.53Z"/><path class="cls-1" d="M218.28,598.5c28,1.44,50.6-21.83,49.69-52.52-.63-31.1-24.69-56.7-53.13-56.8-27.38-.45-48.25,23.62-47.28,53.43C168.91,571.83,191.35,596.84,218.28,598.5Z"/><path class="cls-1" d="M447.57,548a58.23,58.23,0,0,0-58.16-58,56.36,56.36,0,0,0-56.62,57.15c.54,31.13,26.22,56.61,57.61,57.15A56.38,56.38,0,0,0,447.57,548Z"/><path class="cls-1" d="M860.3,485.73c-17.11.34-32.9,23.43-34.17,51-1.86,27.15,11.16,46.45,27.93,43.65,14.89-3,28-25.46,30.18-50.06C885.74,505.34,875.53,485.19,860.3,485.73Z"/><path class="cls-1" d="M730.83,637.47c-25.45,2.5-48.9,27-51.49,54-3,26,14.89,43.26,39.21,39.24,22.91-4.25,44.38-27.15,48.66-51.72C770.83,653.72,755,634.72,730.83,637.47Z"/><path class="cls-1" d="M346.77,824.91c2.49,19.65,25.64,35.94,52.23,37.48,27.18.93,49.17-13.61,48.93-33.46.16-21.53-23.66-40.33-52.77-41C366.12,786.63,344.79,803.69,346.77,824.91Z"/><path class="cls-1" d="M859.2,445.59Z"/><path class="cls-1" d="M802.25,368.67c-24-1.9-36.92-29.49-67.9-32.17-25.81-1.92-46.48,20.58-45.33,50.63.79,30.5,23.29,55.67,49.5,56,31.48.43,42.07-26.69,66.31-25.61,22.25.81,32.06,27.24,54.37,28.08l1.1,0c15.23.53,25.44-19.62,23.94-44.57-2.22-24.6-15.29-47.09-30.18-50.06a1.09,1.09,0,0,0-1.08-.13h0C831.1,347.08,824.37,371,802.25,368.67Z"/><path class="cls-1" d="M827.93,747.78c8.65-16.34,5.57-24.08-7.55-17-.41.27-.81.54-.94.45h0c-19.69,8.8-34.2,30.34-53.66,37.65-21,6.48-25.77-9.94-54-3.52-23.66,4.56-46.84,25.45-51.28,45.88-4.37,18.58,10.07,28.29,31.74,22.57,25.81-8,41.72-26.79,61.93-34.23,18.57-8.17,18.38,2.23,36.24-9h0c0,.05.43-.24.8-.54C802.87,780.93,819,762.33,827.93,747.78Z"/><path class="cls-1" d="M660.45,120c4.44,20.43,27.62,41.32,51.28,45.88,28.28,6.42,33.08-10,54-3.51,19.46,7.31,34,28.84,53.66,37.65h0c.13-.1.53.17.94.44,13.12,7.07,16.2-.66,7.55-17-9-14.55-25.06-33.15-36.77-42.23-.37-.29-.75-.59-.8-.54h0c-17.86-11.25-17.67-.85-36.24-9-20.21-7.45-36.12-26.19-61.93-34.24C670.52,91.74,656.08,101.45,660.45,120Z"/><path class="cls-1" d="M906.39,405.11c1.65,23.38,8.39,43.34,13.82,44.08,3.26.36,3.48-15.78,1.67-36.09v-.16q-1.51-13.62-3.78-27c-1.91-8-4.12-13.93-5.7-15.84C907.17,366.39,904,382.18,906.39,405.11Z"/><path class="cls-1" d="M864.22,233.7l.09.06q-8.07-14.37-17.09-28.1l0,.07C852.8,214.56,859.19,225.1,864.22,233.7Z"/><path class="cls-1" d="M408.85,44.48c25.84-1,46.91-12.46,46.85-24.5C456.1,10,437.12,3.77,414,4.89c-23.09,2-44.08,10.56-46.75,20.31C364.33,37.06,382.9,46.19,408.85,44.48Z"/><path class="cls-1" d="M244.25,157.29c25.82-3.64,49.76-24.19,52.92-45C300.83,93,283.85,82,260.11,86.6c-22.76,5.16-45.09,23.24-50.83,41.58C204.14,147.94,219.4,161.46,244.25,157.29Z"/><path class="cls-1" d="M726,200.51c-24.33-4-42.23,13.23-39.22,39.24,2.6,27,26.05,51.54,51.5,54,24.15,2.75,40-16.24,36.38-41.56C770.4,227.66,748.93,204.77,726,200.51Z"/><path class="cls-1" d="M222.3,442.08c36.44-.19,50.85-29.93,83.66-30.34,33.65-.35,48.37,29.55,88.74,29.51,0-.07,0-.07,0-.08.71.06,1.45.06,2.18.07a58.23,58.23,0,0,0,58.16-58,56.37,56.37,0,0,0-57.16-56.34c-.81.05-1.47.05-2.27.12,0,0,0,0,.13-.09-39.84.69-55.26,30.12-88.74,30.94-32.59,1-45.31-27.06-81.25-25.14-26.93,1.65-49.37,26.66-50.72,55.88C174.06,418.47,194.92,442.52,222.3,442.08Z"/><path class="cls-1" d="M244.25,774c-24.85-4.17-40.11,9.35-35,29.11,5.74,18.34,28.07,36.42,50.83,41.58,23.74,4.57,40.72-6.43,37.06-25.71C294,798.16,270.07,777.61,244.25,774Z"/><path class="cls-1" d="M627.93,696.82c2-27.78-20.45-49.64-50.45-48.37a3,3,0,0,0-1,0h0c-39,1.14-54.35,29-88.12,29.57-34,.17-48.92-27.51-88.65-27.91h0l-1.2-.08c-30.88-.66-54.69,22.09-53.31,50.23,1.26,26.92,26.52,49.23,55.92,50.24.3,0,.88.06,1.17.05h0c38,.67,52.31-24.13,85.54-24.34,32.95-.67,46.37,23.58,83.6,21.78v0l1,0C601.07,746,625.74,723.43,627.93,696.82Z"/><path class="cls-1" d="M740.07,595h0l1.78-.21c24.48-2,45-26.69,46.58-54.9,1.1-28.87-17.53-52-42.42-51.72-.58-.05-1.18.19-1.76.15h0c-33.74.38-47.3,29.51-78.27,30.22-32.11.55-46.12-29.08-85.27-28.78-31.35.1-57.2,26.2-57.4,58-.21,31.35,24.78,56,55.67,55.32,38.65-1.33,53.75-30.53,85.64-31.68C695.27,570.16,706.82,597.38,740.07,595Z"/><path class="cls-1" d="M398.48,281.19c39.82-.46,54.81-28.15,88.78-28,33.93.59,49.17,28.42,88.18,29.56v0a9.57,9.57,0,0,0,2,.08c30,1.28,52.49-20.59,50.45-48.37-2.19-26.61-26.86-49.19-55.57-51.16l-1.94-.07,0,0c-37.18-1.78-50.52,22.51-83.69,21.8-33.22-.19-47.39-25-85.66-24.26-29.4,1-54.66,23.32-55.92,50.24C343.79,259.1,367.6,281.85,398.48,281.19Z"/><path class="cls-1" d="M913.34,592.63c-.06,0-.11,0-.3.4-6.88,5.85-15.1,28.22-24.72,34.08-12,5.59-13.68-14.1-32.06-8.84-16.5,3.83-34.29,27.23-38.51,51.42-4.89,23.39,4.44,37.15,20.11,30.92,17.21-8.17,28.88-30.44,40.59-37.56,9.18-7.11,5.67,7.36,11.82-2.31a.73.73,0,0,1,.18-.11,469.73,469.73,0,0,0,24.09-66.14l-.09-.08C915.2,591.18,914.82,590.58,913.34,592.63Z"/><path class="cls-1" d="M817.75,261.57c4.22,24.19,22,47.59,38.51,51.43,18.38,5.26,20-14.44,32.06-8.85,9.62,5.86,17.84,28.24,24.72,34.08.19.44.24.42.3.41,1.48,2,1.86,1.45,1.11-1.79l.09-.08a471.44,471.44,0,0,0-24.09-66.14.73.73,0,0,1-.18-.11c-6.15-9.67-2.64,4.8-11.82-2.31-11.71-7.12-23.38-29.39-40.59-37.56C822.19,224.43,812.86,238.19,817.75,261.57Z"/><path class="cls-1" d="M664.89,890.86c17.26-7.83,37.16-19.77,45.43-27.94,8.35-10.34-.62-13.79-20.1-7.08-20.85,6.24-43.07,21.32-48.63,32.4C635.86,897.31,646.37,898.06,664.89,890.86Z"/><rect class="cls-1" x="5.52" y="1005.79" width="86.03" height="344.03" rx="8.97"/><rect class="cls-1" x="375.02" y="1220.82" width="86.03" height="129" rx="8.97"/><path class="cls-1" d="M821.57,1005.79H753.48a9,9,0,0,0-9,9v326.1a9,9,0,0,0,9,9h68.09a9,9,0,0,0,9-9v-326.1A9,9,0,0,0,821.57,1005.79Z"/><path class="cls-1" d="M642,1005.79H384a9,9,0,0,0-9,9V1062a29.82,29.82,0,0,0,29.82,29.82H613.65A19.38,19.38,0,0,1,633,1111.2a23.61,23.61,0,0,1-23.6,23.6H430.58c-4.95,0-5.48,4-1.17,9l171.33,197.1c4.3,5,11.81,9,16.76,9H715c4.95,0,5.48-4,1.17-9l-94.79-109a6.64,6.64,0,0,1,5-11H642a77.06,77.06,0,0,0,77.06-77.06v-60.91h0A77.07,77.07,0,0,0,642,1005.79Z"/><path class="cls-1" d="M1086.43,1349.82c5,0,5.52-4,1.21-9l-141.71-163,141.71-163.08c4.31-5,3.74-9-1.21-9H989c-5,0-12.45,4-16.76,9L884,1116.22l-16.13,18.6-37.36,43,37.43,43L884,1239.38l88.22,101.46c4.31,5,11.81,9,16.76,9Z"/><path class="cls-1" d="M349.55,1340.86v-326.1a9,9,0,0,0-9-9H272.49a9,9,0,0,0-9,9v120H126a9,9,0,0,0-9,9v68.1a9,9,0,0,0,9,9H263.52v120a9,9,0,0,0,9,9h68.09A9,9,0,0,0,349.55,1340.86Z"/><path class="cls-1" d="M32.78,1428.62H19.25v8.57H28.5v8.53H17.09a8.25,8.25,0,0,1-6-2.5,8.22,8.22,0,0,1-2.5-6v-8.57a8.22,8.22,0,0,1,2.5-6,8.25,8.25,0,0,1,6-2.5H35.63v-8.56H17.09A17.07,17.07,0,0,0,0,1428.62v8.57a17.07,17.07,0,0,0,17.09,17.09H32.78a4.27,4.27,0,0,0,4.28-4.28v-17.09a4.28,4.28,0,0,0-4.28-4.29Z"/><path class="cls-1" d="M76.14,1411.53H67.58V1450a4.27,4.27,0,0,0,4.28,4.28H103.2v-8.56H76.14Z"/><path class="cls-1" d="M168,1413.27a12.36,12.36,0,0,0-6.45-1.74h-15a12.32,12.32,0,0,0-6.44,1.74,13.22,13.22,0,0,0-4.64,4.64,12.35,12.35,0,0,0-1.73,6.44v17.12a12.41,12.41,0,0,0,1.73,6.44,13.38,13.38,0,0,0,4.64,4.64,12.41,12.41,0,0,0,6.44,1.73h15a12.44,12.44,0,0,0,6.45-1.73,13.28,13.28,0,0,0,4.66-4.64,12.41,12.41,0,0,0,1.73-6.44v-17.12a12.35,12.35,0,0,0-1.73-6.44A13.11,13.11,0,0,0,168,1413.27Zm-2.17,28.2a4.07,4.07,0,0,1-1.26,3,4.11,4.11,0,0,1-3,1.24h-15a4.23,4.23,0,0,1-4.25-4.25v-17.12a4.23,4.23,0,0,1,4.25-4.26h15a4.15,4.15,0,0,1,3,1.24,4.08,4.08,0,0,1,1.26,3Z"/><path class="cls-1" d="M241.92,1424.35a12.27,12.27,0,0,0-1.74-6.44,13.08,13.08,0,0,0-4.65-4.64,12.38,12.38,0,0,0-6.45-1.74H209.14a4.13,4.13,0,0,0-3,1.26,4.08,4.08,0,0,0-1.25,3V1450a4.27,4.27,0,0,0,4.28,4.28h19.94a12.47,12.47,0,0,0,6.45-1.73,13.25,13.25,0,0,0,4.65-4.64,12.32,12.32,0,0,0,1.74-6.44,12.51,12.51,0,0,0-.87-4.67,12.68,12.68,0,0,0-2.42-3.89,12.92,12.92,0,0,0,2.42-3.89A12.54,12.54,0,0,0,241.92,1424.35Zm-9.82,20.13a4.15,4.15,0,0,1-3,1.24H213.42v-8.53h15.66a4.3,4.3,0,0,1,4.28,4.28A4.07,4.07,0,0,1,232.1,1444.48Zm0-17.1a4.15,4.15,0,0,1-3,1.24H213.42v-8.53h15.66a4.19,4.19,0,0,1,3,1.24,4.26,4.26,0,0,1,0,6.05Z"/><path class="cls-1" d="M293,1412.25a4.11,4.11,0,0,0-2.3-.69,4.17,4.17,0,0,0-2.34.69,4.37,4.37,0,0,0-1.59,1.86l-17.9,40.17h9.37l3.17-7.12h18.53l3.21,7.12h9.34l-17.9-40.17A4.37,4.37,0,0,0,293,1412.25Zm-7.78,26.34,5.48-12.24,5.44,12.24Z"/><path class="cls-1" d="M351.54,1411.53H343V1450a4.28,4.28,0,0,0,4.28,4.28H378.6v-8.56H351.54Z"/><polygon class="cls-1" points="453.04 1420.09 467.65 1420.09 467.65 1454.28 476.18 1454.28 476.18 1420.09 490.79 1420.09 490.79 1411.53 453.04 1411.53 453.04 1420.09"/><path class="cls-1" d="M554.82,1413.27a12.38,12.38,0,0,0-6.45-1.74H534.12a12.29,12.29,0,0,0-6.44,1.74,13.22,13.22,0,0,0-4.64,4.64,12.27,12.27,0,0,0-1.74,6.44v29.93h8.57V1440h14.4l6.94,14.25h9.49L553.31,1439a13,13,0,0,0,5.72-4.67,12.35,12.35,0,0,0,2.18-7.15v-2.87a12.35,12.35,0,0,0-1.73-6.44A13.11,13.11,0,0,0,554.82,1413.27Zm-2.17,14a4,4,0,0,1-1.26,3,4.1,4.1,0,0,1-3,1.25h-18.5v-7.12a4.23,4.23,0,0,1,4.25-4.26h14.25a4.17,4.17,0,0,1,3,1.24,4.08,4.08,0,0,1,1.26,3Z"/><path class="cls-1" d="M613.16,1412.25a4.11,4.11,0,0,0-2.3-.69,4.17,4.17,0,0,0-2.34.69,4.37,4.37,0,0,0-1.59,1.86L589,1454.28h9.37l3.17-7.12h18.54l3.2,7.12h9.34l-17.9-40.17A4.37,4.37,0,0,0,613.16,1412.25Zm-7.78,26.34,5.48-12.24,5.45,12.24Z"/><path class="cls-1" d="M682.41,1411.53h-15a4.13,4.13,0,0,0-3,1.26,4.08,4.08,0,0,0-1.25,3V1450a4.27,4.27,0,0,0,4.28,4.28h15a18.51,18.51,0,0,0,18.51-18.53v-5.69a18.51,18.51,0,0,0-18.51-18.53Zm10,24.22a10,10,0,0,1-10,10H671.73v-25.63h10.68a10,10,0,0,1,10,10Z"/><path class="cls-1" d="M737.81,1413.27a13.16,13.16,0,0,0-4.65,4.64,12.35,12.35,0,0,0-1.73,6.44,12.54,12.54,0,0,0,.87,4.67,13,13,0,0,0,2.39,3.89,12.79,12.79,0,0,0-2.39,3.89,12.9,12.9,0,0,0,.86,11.11,13.33,13.33,0,0,0,4.65,4.64,12.34,12.34,0,0,0,6.43,1.73h24.25v-8.56H744.24a4.23,4.23,0,0,1-4.25-4.25,4.15,4.15,0,0,1,1.24-3,4.07,4.07,0,0,1,3-1.26h20v-8.57h-20a4.09,4.09,0,0,1-3-1.24,4.27,4.27,0,0,1,3-7.29h24.25v-8.56H744.24A12.26,12.26,0,0,0,737.81,1413.27Z"/><path class="cls-1" d="M847.93,1416.53a17,17,0,0,0-5,12.09v8.57a17.07,17.07,0,0,0,17.1,17.09h18.53v-8.56H860a8.54,8.54,0,0,1-8.54-8.53v-8.57a8.54,8.54,0,0,1,8.54-8.53h18.53v-8.56H860A17,17,0,0,0,847.93,1416.53Z"/><path class="cls-1" d="M943.31,1413.27a12.38,12.38,0,0,0-6.45-1.74h-15a12.26,12.26,0,0,0-6.43,1.74,13.06,13.06,0,0,0-4.64,4.64,12.27,12.27,0,0,0-1.74,6.44v17.12a12.32,12.32,0,0,0,1.74,6.44,13.22,13.22,0,0,0,4.64,4.64,12.34,12.34,0,0,0,6.43,1.73h15a12.47,12.47,0,0,0,6.45-1.73,13.33,13.33,0,0,0,4.65-4.64,12.32,12.32,0,0,0,1.74-6.44v-17.12a12.27,12.27,0,0,0-1.74-6.44A13.16,13.16,0,0,0,943.31,1413.27Zm-2.17,28.2a4.27,4.27,0,0,1-4.28,4.25h-15a4.25,4.25,0,0,1-4.25-4.25v-17.12a4.25,4.25,0,0,1,4.25-4.26h15a4.19,4.19,0,0,1,3,1.24,4.12,4.12,0,0,1,1.26,3Z"/><path class="cls-1" d="M1013.73,1413.27a12.39,12.39,0,0,0-6.46-1.74H993a12.26,12.26,0,0,0-6.43,1.74,13.06,13.06,0,0,0-4.64,4.64,12.27,12.27,0,0,0-1.74,6.44v29.93h8.56V1440h14.4l7,14.25h9.49l-7.4-15.24a12.87,12.87,0,0,0,5.72-4.67,12.28,12.28,0,0,0,2.19-7.15v-2.87a12.27,12.27,0,0,0-1.74-6.44A13.16,13.16,0,0,0,1013.73,1413.27Zm-2.17,14a4,4,0,0,1-1.26,3,4.12,4.12,0,0,1-3,1.25h-18.5v-7.12a4.23,4.23,0,0,1,4.25-4.26h14.25a4.19,4.19,0,0,1,3,1.24,4.08,4.08,0,0,1,1.26,3Z"/><path class="cls-1" d="M1088.8,1417.91a13,13,0,0,0-4.65-4.64,12.38,12.38,0,0,0-6.45-1.74h-14.25a12.29,12.29,0,0,0-6.44,1.74,13.14,13.14,0,0,0-4.64,4.64,12.27,12.27,0,0,0-1.74,6.44v29.93h8.56V1440h18.51a12.38,12.38,0,0,0,6.45-1.74,13.06,13.06,0,0,0,4.65-4.63,12.32,12.32,0,0,0,1.74-6.44v-2.87A12.27,12.27,0,0,0,1088.8,1417.91Zm-6.82,9.31a4,4,0,0,1-1.26,3,4.1,4.1,0,0,1-3,1.25h-18.51v-7.12a4.25,4.25,0,0,1,4.26-4.26h14.25a4.17,4.17,0,0,1,3,1.24,4.08,4.08,0,0,1,1.26,3Z"/></svg>