<svg id="Capa_1" data-name="Capa 1" xmlns="http://www.w3.org/2000/svg" viewBox="0 0 978.3 369.46"><defs><style>.cls-1{fill:#8c0018;}.cls-1,.cls-2,.cls-3{fill-rule:evenodd;}.cls-2{fill:#5e5e5e;}.cls-3,.cls-4{fill:#003889;}</style></defs><polygon class="cls-1" points="281.89 298.87 281.85 298.92 281.87 298.89 281.89 298.87"/><path class="cls-1" d="M174.1,11.4c-1.77-3.94-10.65-8-19.81-9.43-9.38-1.12-16.56.9-15.88,5,.52,4.95,9.67,10.17,20.32,11.18C168.94,19.41,175.87,16.21,174.1,11.4Z"/><path class="cls-1" d="M222,26.36C218.56,23,210.31,18,203.15,14.78c-7.68-3-12-2.68-9.66,1.09,2.3,4.59,11.52,10.85,20.17,13.43C221.73,32.09,225.45,30.65,222,26.36Z"/><path class="cls-1" d="M163.71,58.73c11.55.91,19.79-5.66,18.44-14.34-1.41-8-11.19-15.11-21.82-16.25-11-.92-19.55,4.64-19.08,12.83C141.73,49.86,151.89,58,163.71,58.73Z"/><path class="cls-1" d="M167.52,134.14a22.53,22.53,0,0,0-23.09,22.93,24.17,24.17,0,0,0,23.8,24.05,22.57,22.57,0,0,0,22.59-23.25C190.46,145.08,180.1,134.52,167.52,134.14Z"/><path class="cls-1" d="M19.62,200.88C8.26,200.69-.39,210.67,0,223c.56,12.12,9.87,22.49,21,23.18,11.6.6,21-9.05,20.6-21.78C41.39,211.53,31.41,200.92,19.62,200.88Z"/><path class="cls-1" d="M92.42,248.62a23.38,23.38,0,0,0,23.71-23.36,24.15,24.15,0,0,0-24.12-24,23.37,23.37,0,0,0-23.48,23.69A24.32,24.32,0,0,0,92.42,248.62Z"/><path class="cls-1" d="M287.28,199.45c-7.1.14-13.65,9.71-14.17,21.13-.77,11.26,4.63,19.27,11.58,18.11,6.18-1.24,11.59-10.56,12.51-20.77C297.83,207.58,293.59,199.23,287.28,199.45Z"/><path class="cls-1" d="M228.5,301.05c9.5-1.76,18.4-11.26,20.18-21.44,1.5-10.5-5.08-18.38-15.09-17.24-10.55,1-20.28,11.21-21.35,22.41C211,295.56,218.41,302.72,228.5,301.05Z"/><path class="cls-1" d="M94.4,324.75c-12.05-.53-20.89,6.55-20.07,15.35C75.36,348.25,85,355,96,355.64c11.27.39,20.39-5.64,20.29-13.88C116.34,332.84,106.46,325,94.4,324.75Z"/><polygon class="cls-1" points="286.82 182.8 286.82 182.8 286.82 182.8 286.82 182.8"/><path class="cls-1" d="M284.69,143.54a.44.44,0,0,0-.45,0h0c-9.08-1.54-11.87,8.37-21.05,7.42-9.95-.79-15.31-12.24-28.15-13.34-10.71-.8-19.27,8.53-18.8,21,.33,12.65,9.66,23.09,20.53,23.22,13.05.18,17.44-11.07,27.5-10.62,9.22.33,13.29,11.29,22.54,11.64l.46,0c6.31.22,10.55-8.13,9.92-18.48C296.28,154.1,290.87,144.77,284.69,143.54Z"/><path class="cls-1" d="M270.72,301.06c-.17.11-.33.23-.39.19h0c-8.16,3.65-14.18,12.58-22.25,15.61-8.69,2.69-10.69-4.12-22.41-1.46-9.81,1.89-19.42,10.55-21.27,19-1.81,7.7,4.18,11.73,13.16,9.36,10.71-3.34,17.31-11.11,25.69-14.2,7.7-3.39,7.62.93,15-3.74h0s.17-.1.33-.22c4.85-3.77,11.52-11.48,15.24-17.52C277.44,301.34,276.16,298.13,270.72,301.06Z"/><path class="cls-1" d="M204.4,47.8c1.85,8.47,11.46,17.14,21.27,19,11.72,2.66,13.72-4.15,22.41-1.46,8.07,3,14.09,12,22.25,15.61h0c.06,0,.22.07.39.19,5.44,2.93,6.72-.28,3.13-7.06-3.72-6-10.39-13.74-15.24-17.51-.16-.12-.31-.24-.33-.22h0c-7.41-4.66-7.33-.35-15-3.73-8.38-3.09-15-10.86-25.69-14.2C208.58,36.07,202.59,40.1,204.4,47.8Z"/><path class="cls-1" d="M312.82,169.33v-.07q-.63-5.64-1.56-11.2c-.8-3.34-1.71-5.78-2.37-6.57-2.16-1.53-3.49,5-2.49,14.53.68,9.69,3.48,18,5.73,18.27C313.47,184.44,313.56,177.75,312.82,169.33Z"/><path class="cls-2" d="M288.9,94.94l0,0q-3.35-6-7.09-11.65v0C284.17,87,286.82,91.37,288.9,94.94Z"/><path class="cls-3" d="M97,16.47c10.71-.4,19.45-5.17,19.42-10.16.17-4.14-7.7-6.72-17.28-6.26C89.54.86,80.84,4.43,79.73,8.47,78.52,13.39,86.22,17.18,97,16.47Z"/><path class="cls-3" d="M28.72,63.25c10.71-1.51,20.63-10,21.94-18.65,1.52-8-5.52-12.56-15.36-10.66-9.44,2.14-18.7,9.64-21.08,17.24C12.09,59.37,18.42,65,28.72,63.25Z"/><path class="cls-3" d="M233.59,119.85c10,1.15,16.59-6.73,15.09-17.23C246.9,92.43,238,82.94,228.5,81.17c-10.09-1.66-17.51,5.49-16.26,16.28C213.31,108.64,223,118.82,233.59,119.85Z"/><path class="cls-3" d="M91.1,181c.3,0,.61,0,.91,0a24.16,24.16,0,0,0,24.12-24A23.38,23.38,0,0,0,92.42,133.6c-.33,0-.61,0-.94.05,0,0,0,0,0,0C75,133.9,68.62,146.1,54.74,146.44,41.22,146.85,36,135.22,21.05,136c-11.17.68-20.48,11-21,23.17-.4,12.36,8.25,22.34,19.61,22.16,15.11-.08,21.08-12.41,34.69-12.58,14-.15,20.06,12.25,36.8,12.23C91.11,181,91.11,181,91.1,181Z"/><path class="cls-3" d="M28.72,319c-10.3-1.73-16.63,3.88-14.5,12.07,2.38,7.61,11.64,15.11,21.08,17.25,9.84,1.89,16.88-2.67,15.36-10.66C49.35,329,39.43,320.48,28.72,319Z"/><path class="cls-3" d="M166.9,266.92a1.26,1.26,0,0,0-.42,0h0c-16.16.47-22.54,12-36.54,12.26-14.09.07-20.29-11.41-36.76-11.58h0l-.49,0c-12.81-.28-22.68,9.15-22.11,20.83.52,11.16,11,20.41,23.19,20.83l.48,0h0c15.75.28,21.7-10,35.48-10.09,13.66-.28,19.22,9.78,34.66,9h.4c11.91-.82,22.13-10.18,23-21.22C188.67,275.46,179.35,266.4,166.9,266.92Z"/><path class="cls-3" d="M236.78,200.45c-.24,0-.49.08-.73.06h0c-14,.16-19.61,12.24-32.46,12.53-13.31.23-19.12-12.06-35.36-11.93a24.17,24.17,0,0,0-23.8,24,22.53,22.53,0,0,0,23.09,22.94c16-.55,22.29-12.66,35.51-13.14,12.72-.49,17.51,10.8,31.29,9.8h0l.74-.09c10.15-.85,18.67-11.07,19.32-22.77C254.83,209.92,247.1,200.34,236.78,200.45Z"/><path class="cls-3" d="M92.68,114.63c16.51-.19,22.73-11.67,36.81-11.61,14.07.24,20.39,11.78,36.57,12.26h0a4.09,4.09,0,0,0,.84,0c12.45.53,21.77-8.54,20.92-20.06-.91-11-11.13-20.39-23-21.21l-.8,0v0c-15.41-.73-20.95,9.34-34.7,9C115.5,83,109.63,72.66,93.76,73c-12.2.42-22.67,9.67-23.19,20.83C70,105.47,79.87,114.9,92.68,114.63Z"/><path class="cls-3" d="M306.18,243.78s-.05,0-.13.16c-2.85,2.43-6.26,11.7-10.25,14.13-5,2.32-5.67-5.84-13.29-3.66-6.85,1.59-14.22,11.29-16,21.32-2,9.7,1.84,15.41,8.34,12.82,7.13-3.38,12-12.62,16.83-15.57,3.81-3,2.35,3,4.9-1l.08,0a193.52,193.52,0,0,0,10-27.42l0,0C307,243.17,306.79,242.93,306.18,243.78Z"/><path class="cls-3" d="M282.51,127.82c7.62,2.18,8.31-6,13.29-3.67,4,2.43,7.4,11.71,10.25,14.13.08.18.1.18.13.17.61.85.77.6.46-.74l0,0a195.35,195.35,0,0,0-10-27.43l-.08,0c-2.55-4-1.09,2-4.9-1-4.86-3-9.7-12.19-16.83-15.58-6.5-2.58-10.37,3.13-8.34,12.82C268.29,116.53,275.66,126.23,282.51,127.82Z"/><path class="cls-3" d="M213.66,352.93c-8.65,2.58-17.87,8.84-20.17,13.43-2.38,3.76,2,4.07,9.66,1.09,7.16-3.25,15.41-8.2,18.84-11.59C225.45,351.57,221.73,350.14,213.66,352.93Z"/><rect class="cls-4" x="378.48" y="64.78" width="47.56" height="190.19" rx="4.96"/><rect class="cls-4" x="582.74" y="183.65" width="47.56" height="71.31" rx="4.96"/><path class="cls-4" d="M829.61,64.78H792a5,5,0,0,0-5,5V250a5,5,0,0,0,5,5h37.64a5,5,0,0,0,5-5V69.74A5,5,0,0,0,829.61,64.78Z"/><path class="cls-4" d="M730.33,64.78H587.7a5,5,0,0,0-5,5V95.85a16.49,16.49,0,0,0,16.49,16.49H714.66a10.7,10.7,0,0,1,10.71,10.71,13,13,0,0,1-13,13H613.46c-2.74,0-3,2.22-.65,5l94.72,109c2.38,2.74,6.53,5,9.26,5h53.88c2.74,0,3-2.22.65-5l-52.4-60.28a3.67,3.67,0,0,1,2.77-6.08h8.64a42.6,42.6,0,0,0,42.6-42.6V107.38h0A42.6,42.6,0,0,0,730.33,64.78Z"/><path class="cls-4" d="M898.35,159.89l78.34-90.15c2.39-2.74,2.08-5-.66-5H922.17c-2.73,0-6.88,2.23-9.27,5l-48.77,56.08-8.91,10.29-20.65,23.78,20.69,23.78,8.87,10.24L912.9,250c2.39,2.74,6.54,5,9.27,5H976c2.74,0,3.05-2.23.66-5Z"/><path class="cls-4" d="M563.71,64.78H526.07a5,5,0,0,0-5,5V136.1h-76a5,5,0,0,0-4.95,5V178.7a5,5,0,0,0,4.95,5h76V250a5,5,0,0,0,5,5h37.64a5,5,0,0,0,5-5V69.74A5,5,0,0,0,563.71,64.78Z"/><path class="cls-4" d="M384.88,312.71a9.42,9.42,0,0,1-9.45-9.45v-4.73a9.42,9.42,0,0,1,9.45-9.45h10.24v4.73H384.88a4.71,4.71,0,0,0-4.72,4.72v4.73a4.71,4.71,0,0,0,4.72,4.72h6.3v-4.72h-5.11v-4.73h7.48a2.28,2.28,0,0,1,1.67.69,2.33,2.33,0,0,1,.7,1.68v9.45a2.37,2.37,0,0,1-2.37,2.36Z"/><path class="cls-4" d="M417.52,289.08V308h15v4.73H415.15a2.37,2.37,0,0,1-2.37-2.36V289.08Z"/><path class="cls-4" d="M456.43,312.71a6.81,6.81,0,0,1-3.56-1,7.22,7.22,0,0,1-2.56-2.56,6.81,6.81,0,0,1-1-3.56v-9.47a6.78,6.78,0,0,1,1-3.55,7.33,7.33,0,0,1,2.56-2.57,6.81,6.81,0,0,1,3.56-1h8.28a6.81,6.81,0,0,1,3.56,1,7.3,7.3,0,0,1,2.58,2.57,6.78,6.78,0,0,1,1,3.55v9.47a6.81,6.81,0,0,1-1,3.56,7.19,7.19,0,0,1-2.58,2.56,6.81,6.81,0,0,1-3.56,1Zm-2.35-16.55v9.47a2.36,2.36,0,0,0,2.35,2.35h8.28a2.28,2.28,0,0,0,1.67-.69,2.24,2.24,0,0,0,.69-1.66v-9.47a2.36,2.36,0,0,0-2.36-2.35h-8.28a2.36,2.36,0,0,0-2.35,2.35Z"/><path class="cls-4" d="M491,312.71a2.36,2.36,0,0,1-2.36-2.36v-18.9a2.28,2.28,0,0,1,.69-1.67,2.25,2.25,0,0,1,1.67-.7h11a6.81,6.81,0,0,1,3.56,1,7.19,7.19,0,0,1,2.57,2.57,6.69,6.69,0,0,1,1,3.55,7,7,0,0,1-.48,2.59,7.17,7.17,0,0,1-1.35,2.15,7,7,0,0,1,1.35,2.15,6.92,6.92,0,0,1,.48,2.58,6.73,6.73,0,0,1-1,3.56,7.09,7.09,0,0,1-2.57,2.56,6.81,6.81,0,0,1-3.56,1Zm2.37-18.9v4.72h8.66a2.3,2.3,0,0,0,1.67-.69,2.37,2.37,0,0,0,0-3.34,2.3,2.3,0,0,0-1.67-.69Zm0,9.45V308h8.66a2.3,2.3,0,0,0,1.67-.69,2.24,2.24,0,0,0,.69-1.66,2.37,2.37,0,0,0-2.36-2.37Z"/><path class="cls-4" d="M536.11,289.1a2.24,2.24,0,0,1,1.28.38,2.34,2.34,0,0,1,.87,1l9.9,22.21H543l-1.77-3.94H531l-1.75,3.94h-5.18l9.89-22.21a2.36,2.36,0,0,1,.88-1A2.27,2.27,0,0,1,536.11,289.1Zm-3,14.94h6l-3-6.77Z"/><path class="cls-4" d="M569.76,289.08V308h15v4.73H567.4a2.36,2.36,0,0,1-2.37-2.36V289.08Z"/><path class="cls-4" d="M634,312.71v-18.9h-8.07v-4.73h20.87v4.73h-8.08v18.9Z"/><path class="cls-4" d="M668.35,304.84v7.87h-4.74V296.16a6.78,6.78,0,0,1,1-3.55,7.35,7.35,0,0,1,2.57-2.57,6.81,6.81,0,0,1,3.56-1h7.88a6.81,6.81,0,0,1,3.56,1,7.3,7.3,0,0,1,2.58,2.57,6.78,6.78,0,0,1,1,3.55v1.59a6.86,6.86,0,0,1-1.21,4,7.17,7.17,0,0,1-3.16,2.58l4.08,8.42h-5.24l-3.84-7.87Zm0-8.68v3.94h10.23a2.3,2.3,0,0,0,1.67-.69,2.24,2.24,0,0,0,.69-1.66v-1.59a2.26,2.26,0,0,0-.69-1.66,2.3,2.3,0,0,0-1.67-.69H670.7a2.34,2.34,0,0,0-2.35,2.35Z"/><path class="cls-4" d="M713.12,289.1a2.2,2.2,0,0,1,1.27.38,2.36,2.36,0,0,1,.88,1l9.9,22.21H720l-1.78-3.94H708l-1.75,3.94h-5.19L711,290.5a2.36,2.36,0,0,1,.88-1A2.27,2.27,0,0,1,713.12,289.1Zm-3,14.94h6l-3-6.77Z"/><path class="cls-4" d="M744.4,312.71a2.36,2.36,0,0,1-2.36-2.36v-18.9a2.37,2.37,0,0,1,2.36-2.37h8.28a10.24,10.24,0,0,1,10.23,10.24v3.15a10.23,10.23,0,0,1-10.23,10.24Zm2.37-18.9V308h5.91a5.51,5.51,0,0,0,5.51-5.51v-3.15a5.53,5.53,0,0,0-5.51-5.51Z"/><path class="cls-4" d="M786.86,312.71a6.81,6.81,0,0,1-3.56-1,7.25,7.25,0,0,1-2.57-2.56,6.8,6.8,0,0,1-1-3.56,6.93,6.93,0,0,1,1.8-4.73,7.31,7.31,0,0,1-1.33-2.15,7.17,7.17,0,0,1-.47-2.59,6.77,6.77,0,0,1,1-3.55A7.35,7.35,0,0,1,783.3,290a6.81,6.81,0,0,1,3.56-1h13.4v4.73h-13.4a2.36,2.36,0,1,0,0,4.72h11v4.73h-11a2.25,2.25,0,0,0-1.67.7,2.31,2.31,0,0,0-.68,1.67,2.34,2.34,0,0,0,2.35,2.35h13.4v4.73Z"/><path class="cls-4" d="M850.87,312.71a9.42,9.42,0,0,1-9.45-9.45v-4.73a9.42,9.42,0,0,1,9.45-9.45h10.24v4.73H850.87a4.71,4.71,0,0,0-4.72,4.72v4.73a4.71,4.71,0,0,0,4.72,4.72h10.24v4.73Z"/><path class="cls-4" d="M885.06,312.71a6.81,6.81,0,0,1-3.56-1,7.22,7.22,0,0,1-2.56-2.56,6.81,6.81,0,0,1-1-3.56v-9.47a6.78,6.78,0,0,1,1-3.55A7.33,7.33,0,0,1,881.5,290a6.81,6.81,0,0,1,3.56-1h8.28a6.81,6.81,0,0,1,3.56,1,7.3,7.3,0,0,1,2.58,2.57,6.78,6.78,0,0,1,1,3.55v9.47a6.81,6.81,0,0,1-1,3.56,7.19,7.19,0,0,1-2.58,2.56,6.81,6.81,0,0,1-3.56,1Zm-2.35-16.55v9.47a2.36,2.36,0,0,0,2.35,2.35h8.28a2.28,2.28,0,0,0,1.67-.69,2.24,2.24,0,0,0,.69-1.66v-9.47a2.36,2.36,0,0,0-2.36-2.35h-8.28a2.36,2.36,0,0,0-2.35,2.35Z"/><path class="cls-4" d="M922,304.84v7.87h-4.73V296.16a6.78,6.78,0,0,1,1-3.55,7.25,7.25,0,0,1,2.56-2.57,6.81,6.81,0,0,1,3.56-1h7.88a6.81,6.81,0,0,1,3.56,1,7.3,7.3,0,0,1,2.58,2.57,6.78,6.78,0,0,1,1,3.55v1.59a6.86,6.86,0,0,1-1.21,4,7.17,7.17,0,0,1-3.16,2.58l4.09,8.42h-5.25L930,304.84Zm0-8.68v3.94h10.23a2.28,2.28,0,0,0,1.67-.69,2.24,2.24,0,0,0,.69-1.66v-1.59a2.36,2.36,0,0,0-2.36-2.35h-7.88a2.36,2.36,0,0,0-2.35,2.35Z"/><path class="cls-4" d="M961,304.84v7.87h-4.73V296.16a6.78,6.78,0,0,1,1-3.55,7.33,7.33,0,0,1,2.56-2.57,6.81,6.81,0,0,1,3.56-1h7.88a6.81,6.81,0,0,1,3.56,1,7.3,7.3,0,0,1,2.58,2.57,6.78,6.78,0,0,1,1,3.55v1.59a6.79,6.79,0,0,1-1,3.56,7.3,7.3,0,0,1-2.58,2.57,6.81,6.81,0,0,1-3.56,1Zm0-8.68v3.94H971.2a2.28,2.28,0,0,0,1.67-.69,2.24,2.24,0,0,0,.69-1.66v-1.59a2.36,2.36,0,0,0-2.36-2.35h-7.88a2.36,2.36,0,0,0-2.35,2.35Z"/></svg>