<?xml version="1.0" encoding="UTF-8"?>
<svg id="Capa_1" data-name="Capa 1" xmlns="http://www.w3.org/2000/svg" viewBox="0 0 338.94 338.94">
  <defs>
    <style>
      .cls-1 {
        fill: #252525;
      }
    </style>
  </defs>
  <path class="cls-1" d="M304.51,137.33l-16-36.17c-1.51-7.24,3.85-13.76,9.03-20.06,3.21-3.9,6.24-7.59,7.77-11.46l.1-.26c.47-1.18,1-2.51-.2-4.14l-32.2-31.83-.19-.19-.26-.07c-2.45-.63-6.86,2.53-13.82,7.74-6.09,4.56-13,9.73-16.83,9.9-3.94.15-8.11-2.1-12.15-4.29-2.01-1.09-4.1-2.22-6.12-3.03-1.54-.61-3.51-1.26-5.59-1.94-6.86-2.24-16.25-5.31-17.87-9.95-1.97-5.67-2.86-13.4-3.71-20.87-.4-3.55-.79-6.9-1.27-9.87l-.14-.84h-51.16l-6.57,34.43-6.14,2.71c.55.47,1.07.97,1.54,1.5l6.36-2.81,6.45-33.84h47.8c.42,2.72.76,5.75,1.13,8.94.86,7.58,1.76,15.42,3.81,21.3,1.94,5.57,11.47,8.69,19.14,11.2,2.05.67,3.99,1.3,5.47,1.89,1.91.76,3.85,1.81,5.9,2.93,4.28,2.32,8.69,4.7,13.19,4.53,4.45-.19,11.31-5.33,17.95-10.29,4.45-3.33,9.93-7.43,11.87-7.43.01,0,.02,0,.03,0l31.81,31.43c.47.66.35,1.03-.09,2.15l-.11.27c-1.41,3.58-4.34,7.15-7.45,10.92-5.51,6.7-11.21,13.62-9.42,21.85l16.53,37.42,33.84,6.45v47.81c-2.72.42-5.74.76-8.93,1.12-7.58.86-15.42,1.76-21.31,3.81-5.58,1.94-8.67,11.44-11.16,19.07-.68,2.08-1.32,4.04-1.92,5.55-.77,1.93-1.83,3.82-2.95,5.83-2.32,4.16-4.72,8.47-4.52,13.25.19,4.45,5.32,11.31,10.29,17.95,3.35,4.47,7.48,9.99,7.43,11.9l-31.43,31.81c-.66.47-1.03.35-2.15-.09l-.27-.11c-3.6-1.41-7.18-4.35-10.98-7.46-6.7-5.49-13.63-11.16-21.8-9.41l-37.42,16.53-6.45,33.84h-47.8c-.42-2.72-.76-5.75-1.13-8.94-.86-7.58-1.76-15.42-3.81-21.3-1.94-5.58-11.44-8.67-19.07-11.16-2.08-.68-4.04-1.32-5.55-1.92-1.93-.77-3.83-1.83-5.83-2.95-4.16-2.32-8.45-4.71-13.25-4.52-4.45.19-11.31,5.32-17.94,10.29-4.45,3.33-9.93,7.43-11.87,7.43-.01,0-.02,0-.03,0l-31.81-31.43c-.47-.66-.35-1.03.09-2.15l.11-.27c1.41-3.58,4.34-7.15,7.45-10.92,5.51-6.7,11.21-13.62,9.42-21.85l-16.53-37.42-33.84-6.45v-47.81c2.72-.42,5.74-.76,8.93-1.12,4.42-.5,8.92-1.03,13.08-1.77-.39-.59-.75-1.21-1.06-1.85-3.91.67-8.11,1.16-12.25,1.63-3.54.4-6.89.79-9.86,1.27l-.84.14v51.17l34.43,6.57,16,36.17c1.51,7.24-3.85,13.76-9.03,20.06-3.21,3.9-6.24,7.59-7.77,11.46l-.1.26c-.47,1.18-1.01,2.51.2,4.14l32.2,31.83.19.19.26.07c2.47.64,6.86-2.53,13.82-7.74,6.09-4.56,13-9.73,16.83-9.89,4.19-.19,8.27,2.08,12.19,4.26,1.98,1.1,4.02,2.24,6.07,3.06,1.56.62,3.56,1.27,5.67,1.96,6.83,2.23,16.18,5.28,17.8,9.92,1.97,5.67,2.86,13.4,3.71,20.87.4,3.55.79,6.9,1.27,9.87l.14.84h51.16l6.57-34.43,36.17-16c7.18-1.48,13.7,3.86,20.01,9.03,3.92,3.21,7.63,6.24,11.51,7.77l.26.1c1.18.47,2.51,1,4.14-.2l31.83-32.2.19-.19.07-.26c.63-2.47-2.53-6.86-7.74-13.82-4.56-6.09-9.73-13-9.89-16.83-.18-4.22,2.08-8.27,4.27-12.19,1.1-1.98,2.24-4.02,3.06-6.06.62-1.56,1.27-3.56,1.96-5.67,2.23-6.83,5.28-16.18,9.92-17.8,5.67-1.98,13.4-2.86,20.88-3.71,3.54-.4,6.89-.79,9.86-1.27l.84-.14v-51.17l-34.43-6.57Z"/>
</svg>