<?xml version="1.0" encoding="UTF-8"?>
<svg id="Capa_1" data-name="Capa 1" xmlns="http://www.w3.org/2000/svg" viewBox="0 0 745.65 352.25">
  <defs>
    <style>
      .cls-1 {
        fill: #bf6e15;
      }

      .cls-2 {
        fill: #252525;
      }

      .cls-3 {
        fill: none;
      }
    </style>
  </defs>
  <g>
    <path class="cls-2" d="M1.71,1.53h27.52v82.32H1.71V1.53Z"/>
    <path class="cls-2" d="M38.87,1.53h25.75l29.28,36.34V1.53h27.28v82.32h-24.46l-30.58-37.98v37.98h-27.28V1.53Z"/>
    <path class="cls-2" d="M130.59,1.53h31.52c32.69,0,49.04,15.99,49.04,40.45v.23c0,24.46-16.7,41.63-49.98,41.63h-30.58V1.53ZM158.11,25.52v34.34h4.59c12.7,0,20.7-5.17,20.7-17.05v-.24c0-11.88-8-17.05-20.7-17.05h-4.59Z"/>
    <path class="cls-2" d="M217.97,46.92V1.53h27.99v45.04c0,10.23,5.29,14.58,12.7,14.58s12.7-4,12.7-13.99V1.53h27.99v44.81c0,28.11-16.35,39.16-40.92,39.16s-40.45-11.29-40.45-38.57Z"/>
    <path class="cls-2" d="M301.23,71.5l14.7-17.52c8.94,6.94,19.05,9.64,28.81,9.64,5.06,0,7.06-1.29,7.06-3.53v-.24c0-2.35-2.59-3.65-11.41-5.41-18.46-3.76-34.69-9.06-34.69-26.46v-.23c0-15.64,12.35-27.75,34.93-27.75,15.99,0,27.64,3.76,37.16,11.29l-13.41,18.58c-7.88-5.65-17.05-8.11-24.7-8.11-4.12,0-6,1.41-6,3.41v.24c0,2.23,2.12,3.76,10.94,5.29,21.05,3.76,35.16,10.11,35.16,26.58v.24c0,17.29-14.23,27.87-36.34,27.87-16.82,0-31.75-4.59-42.22-13.88Z"/>
    <path class="cls-2" d="M404.24,24.81h-24.23V1.53h75.97v23.28h-24.23v59.04h-27.52V24.81Z"/>
    <path class="cls-2" d="M462.22,1.53h40.22c14.7,0,23.87,3.65,29.63,9.41,5.06,5.06,7.53,11.05,7.53,19.52v.24c0,12.11-6.23,20.34-16.23,25.17l19.17,27.99h-31.4l-15.52-23.52h-5.88v23.52h-27.52V1.53ZM501.61,40.69c6.59,0,10.58-2.94,10.58-8v-.24c0-5.29-4-7.88-10.47-7.88h-12v16.11h11.88Z"/>
    <path class="cls-2" d="M546.54,1.53h27.52v82.32h-27.52V1.53Z"/>
    <path class="cls-2" d="M612.39.94h27.28l34.69,82.91h-29.87l-4.35-11.05h-28.81l-4.23,11.05h-29.4L612.39.94ZM633.32,53.27l-7.53-19.99-7.53,19.99h15.05Z"/>
    <path class="cls-2" d="M677.77,1.53h27.52v58.8h38.69v23.52h-66.21V1.53Z"/>
  </g>
  <path class="cls-3" d="M329.23,130.19h-11.84v28.85h11.65c11.1,0,18.5-4.81,18.5-14.24v-.37c0-9.43-6.66-14.24-18.31-14.24Z"/>
  <path class="cls-3" d="M472.94,144.8v-.37c0-9.43-6.66-14.24-18.31-14.24h-11.84v28.85h11.65c11.1,0,18.5-4.81,18.5-14.24Z"/>
  <path class="cls-1" d="M123.56,183.27v.37c0,27.19-22.38,43.84-57.16,43.84-26.45,0-49.94-7.21-66.4-21.83l23.12-27.56c14.06,10.91,29.96,15.17,45.32,15.17,7.95,0,11.1-2.03,11.1-5.55v-.37c0-3.7-4.07-5.73-17.94-8.51-29.04-5.92-54.56-14.24-54.56-41.62v-.37c0-24.6,19.42-43.65,54.94-43.65,25.15,0,43.47,5.92,58.45,17.76l-21.09,29.22c-12.39-8.88-26.82-12.76-38.84-12.76-6.47,0-9.43,2.22-9.43,5.36v.37c0,3.51,3.33,5.92,17.2,8.32,33.11,5.92,55.31,15.91,55.31,41.8ZM216.41,167.36c0,15.72-8.14,22.01-19.98,22.01s-19.98-6.84-19.98-22.94v-70.84h-44.02v71.4c0,42.91,25.16,60.67,63.63,60.67s64.37-17.39,64.37-61.59v-70.47h-44.02v71.77ZM390.27,141.65v.37c0,31.26-23.86,47.91-58.82,47.91h-14.06v35.14h-43.28V95.6h58.26c34.4,0,57.9,15.35,57.9,46.06ZM347.54,144.43c0-9.43-6.66-14.24-18.31-14.24h-11.84v28.85h11.65c11.1,0,18.5-4.81,18.5-14.24v-.37ZM428.74,225.07h-29.22V95.6h58.26c34.4,0,57.89,15.35,57.89,46.06v.37c0,31.26-23.86,47.91-58.82,47.91h-14.06v23.24c-5.11,3.45-9.81,7.46-14.06,11.91ZM442.79,159.04h11.65c11.1,0,18.5-4.81,18.5-14.24v-.37c0-9.43-6.66-14.24-18.31-14.24h-11.84v28.85ZM568.2,95.6h-43.28v110.31c10.31,4.57,19.54,11.11,27.22,19.16h76.91v-36.99h-60.85v-92.48ZM697.12,95.6l-22.38,42.54-22.2-42.54h-48.46l48.83,83.6v45.87h43.28v-46.43l48.83-83.05h-47.91Z"/>
  <g>
    <path class="cls-2" d="M.35,237.38h6.87l67.73,85.4v-85.4h7.01v98.16h-5.47L7.36,248.32v87.22H.35v-98.16Z"/>
    <path class="cls-2" d="M111.13,237.38h69.83v6.73h-62.54v38.56h56.23v6.73h-56.23v39.4h63.24v6.73h-70.54v-98.16Z"/>
    <path class="cls-2" d="M230.88,244.11h-34.21v-6.73h75.72v6.73h-34.21v91.43h-7.29v-91.43Z"/>
    <path class="cls-2" d="M286.27,237.38h8.13l30.85,87.36,28.75-87.64h5.61l28.75,87.64,30.85-87.36h7.57l-35.62,98.86h-5.89l-28.75-85.26-28.75,85.26h-5.89l-35.62-98.86Z"/>
    <path class="cls-2" d="M568.66,237.38h41.23c12.2,0,21.6,3.65,27.62,9.68,4.63,4.63,7.43,11.08,7.43,18.23v.28c0,16.41-12.34,25.8-28.75,28.04l32.39,41.93h-9.25l-31.27-40.67h-32.11v40.67h-7.29v-98.16ZM609.04,288.29c16.41,0,28.61-8.41,28.61-22.44v-.28c0-13.32-10.24-21.46-28.19-21.46h-33.51v44.17h33.09Z"/>
    <path class="cls-2" d="M664.04,237.38h7.29v64.51l62.54-64.51h9.96l-42.91,43.33,44.73,54.83h-9.54l-40.39-49.64-24.4,24.68v24.96h-7.29v-98.16Z"/>
  </g>
  <path class="cls-1" d="M500.47,215.56c.61,3.72.83,9.08,2.04,12.54.93,2.67,6.99,3.97,9.75,5.07,2.43.97,5.04,3.1,7.58,3,3.19-.14,10.49-7.63,12.32-7.17l13.02,12.87c.38.51.19.88-.01,1.39-1.61,4.1-7.91,8.08-6.83,13.06l6.59,14.91,13.85,2.64v20.08c-3.72.61-9.08.83-12.54,2.04-2.68.93-3.96,6.99-5.06,9.75-.98,2.46-3.11,4.86-3,7.57.14,3.19,7.63,10.49,7.17,12.32l-12.87,13.02c-.51.38-.88.19-1.39-.01-4.11-1.62-8.12-7.89-13.06-6.83l-14.91,6.59-2.64,13.85h-20.08c-.61-3.72-.83-9.08-2.04-12.54-.93-2.68-6.99-3.96-9.75-5.06-2.46-.98-4.86-3.11-7.57-3-3.19.14-10.49,7.63-12.32,7.17l-13.02-12.87c-.38-.51-.19-.88.01-1.39,1.61-4.1,7.91-8.08,6.83-13.06l-6.59-14.91-13.85-2.64v-20.08c3.72-.61,9.08-.83,12.54-2.04,2.68-.93,3.96-6.99,5.06-9.75.98-2.46,3.11-4.86,3-7.57-.14-3.19-7.63-10.49-7.17-12.32l12.87-13.02c.51-.38.88-.19,1.39.01,4.1,1.61,8.08,7.91,13.06,6.83l14.91-6.59,2.64-13.85h20.08ZM485.07,247.72c-27.55,3.11-40.62,37.74-23.08,59.14,18.77,22.89,56.31,15.31,63.67-13.29,6.73-26.12-14.1-48.84-40.59-45.85Z"/>
</svg>