<svg id="Capa_1" data-name="Capa 1" xmlns="http://www.w3.org/2000/svg" viewBox="0 0 1086.64 1137.38"><defs><style>.cls-1{fill:#1e3d7f;}</style></defs><path class="cls-1" d="M72.73,1.81V75.28H65.28V16.61L39.08,75.28H33.65L7.45,16.82V75.28H0V1.81H7.88L36.31,65.49,64.74,1.81Z"/><path class="cls-1" d="M104.36,71.18A34.82,34.82,0,0,1,91.1,57.66,39.59,39.59,0,0,1,86.25,38,39.6,39.6,0,0,1,91.1,18.37,35,35,0,0,1,104.36,4.84a38.89,38.89,0,0,1,37.58,0,34.65,34.65,0,0,1,13.21,13.53A40,40,0,0,1,159.94,38a40,40,0,0,1-4.79,19.65,34.49,34.49,0,0,1-13.21,13.52,38.82,38.82,0,0,1-37.58,0ZM138,65.7a27.24,27.24,0,0,0,10.44-11A35,35,0,0,0,152.27,38a34.66,34.66,0,0,0-3.83-16.61,27.33,27.33,0,0,0-10.44-11,30.85,30.85,0,0,0-29.81,0,27.33,27.33,0,0,0-10.44,11A34.66,34.66,0,0,0,93.92,38a35,35,0,0,0,3.83,16.67,27.24,27.24,0,0,0,10.44,11,30.92,30.92,0,0,0,29.81,0Z"/><path class="cls-1" d="M213.18,75.28,194.76,44.19H181V75.28h-7.45V.85h22.36q12.45,0,18.9,6t6.44,15.65a21.16,21.16,0,0,1-4.63,13.79Q212,42,203,43.66l19.16,31.62ZM181,38.12h15q8.73,0,13.15-4.26t4.42-11.39q0-7.35-4.26-11.34t-13.42-4H181Z"/><path class="cls-1" d="M243.53,6.92V34.71h28.21v6.18H243.53V69.11h31.41v6.17H236.07V.75h38.87V6.92Z"/><path class="cls-1" d="M362.36.85V7H341.7V75.28h-7.45V7H313.48V.85Z"/><path class="cls-1" d="M429.44.85V75.28H422V40.46H381.63V75.28h-7.45V.85h7.45V34.29H422V.85Z"/><path class="cls-1" d="M453.93,6.92V34.71h28.22v6.18H453.93V69.11h31.42v6.17H446.48V.75h38.87V6.92Z"/><path class="cls-1" d="M556.16,75.28H548.7L507.49,12.67V75.28H500V.85h7.45L548.7,63.36V.85h7.46Z"/><path class="cls-1" d="M747.83,339.79q-53.48,0-70.57,43.31T660.15,512q0,86.63,17.11,129.92t70.57,43.31q52.39,0,69.51-43.31T834.46,512q0-85.54-17.12-128.86T747.83,339.79ZM808,638.17c-9.82,24.85-29.48,36.92-60.12,36.92-31.36,0-51.37-12.07-61.18-36.92-10.88-27.54-16.4-70-16.4-126.21,0-55.5,5.52-97.6,16.4-125.15,9.81-24.84,29.82-36.92,61.18-36.92,30.63,0,50.3,12.08,60.12,36.92,10.88,27.58,16.4,69.68,16.4,125.15C824.35,568.14,818.83,610.6,808,638.17Z"/><path class="cls-1" d="M510.85,826h13.58a255.19,255.19,0,0,1-18.8-22.59Q427,697,427,512t78.6-290.87q78.6-105.85,242.2-105.86,162.54,0,241.68,106.4T1068.64,512q0,185-79.13,291.4A259.69,259.69,0,0,1,970.61,826h13.6q7-8,13.41-16.56c53.83-72.39,81.13-172.46,81.13-297.43,0-124.24-27.3-223.95-81.13-296.36C943.08,142.29,859,105.12,747.83,105.12c-111.93,0-196.15,37-250.32,110C444,287.09,416.93,387,416.93,512S444,737,497.5,809.36C501.76,815.13,506.22,820.64,510.85,826Z"/><polygon class="cls-1" points="113.35 825.96 123.45 825.96 123.45 354.76 10.1 354.76 10.1 132.34 372.62 132.34 372.62 777.99 382.72 777.99 382.72 122.24 0 122.24 0 364.87 113.35 364.87 113.35 825.96"/><path class="cls-1" d="M208.63,865.62,122.41,1030v104.7H95.46V1030l-87-164.37H38.88l70.06,139.73,69.67-139.73Z"/><path class="cls-1" d="M274.84,887.56V988h102v22.33h-102v102H388.39v22.33H247.89V865.24h140.5v22.32Z"/><path class="cls-1" d="M597.4,1070.79H475l-23.48,63.9H423l98.16-265.6H551.6l97.77,265.6H620.88Zm-8.08-22.33L536.2,903l-53.12,145.5Z"/><path class="cls-1" d="M835.67,1134.69l-66.59-112.4H719.42v112.4H692.48V865.62h80.83q45,0,68.33,21.56t23.29,56.58q0,29.26-16.75,49.85t-49.46,26.76L868,1134.69ZM719.42,1000.35H773.7q31.56,0,47.54-15.4t16-41.19q0-26.55-15.4-41t-48.5-14.44H719.42Z"/><path class="cls-1" d="M953.26,1128.14q-20.21-9.23-31.75-25.79a67.65,67.65,0,0,1-12.32-36.95h28.48q1.92,19.63,17.33,34.45t45,14.82q27.33,0,43.31-14.05t16-35.6q0-17.32-8.85-27.91a54.21,54.21,0,0,0-21.94-15.78q-13.1-5.21-36.19-11.36-26.94-7.31-42.72-14.24a67.89,67.89,0,0,1-27-21.56q-11.16-14.62-11.16-39.64,0-20.79,10.78-37.15t30.41-25.6q19.62-9.24,45-9.24,37.34,0,60.24,18.29T1084.33,928h-29.25q-2.7-16.54-18.09-29.44t-41.58-12.9q-24.24,0-40.41,12.9t-16.17,35.22q0,16.93,8.85,27.33a56.44,56.44,0,0,0,22.14,15.78q13.27,5.39,36,11.55,26.16,7.3,42.34,14.43a69.05,69.05,0,0,1,27.33,21.75q11.16,14.63,11.16,39.26a69.29,69.29,0,0,1-10,35.8q-10,17-29.64,27.33t-47,10.39Q973.48,1137.38,953.26,1128.14Z"/></svg>