<?xml version="1.0" encoding="UTF-8"?>
<svg id="Capa_1" xmlns="http://www.w3.org/2000/svg" version="1.1" viewBox="0 0 1086.6 1137.4">
  <!-- Generator: Adobe Illustrator 29.8.2, SVG Export Plug-In . SVG Version: 2.1.1 Build 3)  -->
  <defs>
    <style>
      .st0 {
        fill: #252525;
      }
    </style>
  </defs>
  <path class="st0" d="M72.7,1.8v73.5h-7.5V16.6l-26.2,58.7h-5.4L7.4,16.8v58.5H0V1.8h7.9l28.4,63.7L64.7,1.8h8Z"/>
  <path class="st0" d="M104.4,71.2c-5.6-3.2-10.2-7.9-13.3-13.5-3.3-6-5-12.8-4.8-19.7-.1-6.9,1.6-13.6,4.8-19.6,3.1-5.6,7.7-10.3,13.3-13.5,11.7-6.5,25.9-6.5,37.6,0,5.6,3.2,10.1,7.9,13.2,13.5,3.3,6,4.9,12.8,4.8,19.6.1,6.9-1.5,13.6-4.8,19.7-3.1,5.6-7.6,10.3-13.2,13.5-11.7,6.5-25.9,6.5-37.6,0h0ZM138,65.7c4.5-2.6,8.1-6.4,10.4-11,2.6-5.2,4-10.9,3.8-16.7.1-5.8-1.2-11.5-3.8-16.6-2.4-4.6-6-8.4-10.4-11-9.3-5.1-20.5-5.1-29.8,0-4.4,2.6-8.1,6.4-10.4,11-2.6,5.1-4,10.8-3.8,16.6-.1,5.8,1.2,11.5,3.8,16.7,2.4,4.6,6,8.4,10.4,11,9.3,5.1,20.5,5.1,29.8,0h0Z"/>
  <path class="st0" d="M213.2,75.3l-18.4-31.1h-13.8v31.1h-7.4V.9h22.4c8.3,0,14.6,2,18.9,6,4.3,4,6.4,9.2,6.4,15.7.1,5-1.5,9.9-4.6,13.8-3.1,3.8-7.6,6.3-13.6,7.4l19.2,31.6h-9ZM181,38.1h15c5.8,0,10.2-1.4,13.1-4.3,2.9-2.8,4.4-6.6,4.4-11.4s-1.4-8.7-4.3-11.3-7.3-4-13.4-4h-14.9v31Z"/>
  <path class="st0" d="M243.5,6.9v27.8h28.2v6.2h-28.2v28.2h31.4v6.2h-38.9V.8h38.9v6.2h-31.4Z"/>
  <path class="st0" d="M362.4.9v6.1h-20.7v68.3h-7.5V7h-20.8V.9h48.9Z"/>
  <path class="st0" d="M429.4.9v74.4h-7.4v-34.8h-40.4v34.8h-7.5V.9h7.5v33.4h40.4V.9h7.4Z"/>
  <path class="st0" d="M453.9,6.9v27.8h28.2v6.2h-28.2v28.2h31.4v6.2h-38.9V.8h38.9v6.2h-31.4Z"/>
  <path class="st0" d="M556.2,75.3h-7.5l-41.2-62.6v62.6h-7.5V.9h7.5l41.2,62.5V.9h7.5v74.4Z"/>
  <path class="st0" d="M747.8,339.8c-35.7,0-59.2,14.4-70.6,43.3-11.4,28.9-17.1,71.8-17.1,128.9,0,57.8,5.7,101.1,17.1,129.9s34.9,43.3,70.6,43.3c34.9,0,58.1-14.4,69.5-43.3,11.4-28.9,17.1-72.2,17.1-129.9s-5.7-100-17.1-128.9-34.6-43.3-69.5-43.4ZM808,638.2c-9.8,24.8-29.5,36.9-60.1,36.9s-51.4-12.1-61.2-36.9c-10.9-27.5-16.4-70-16.4-126.2s5.5-97.6,16.4-125.1c9.8-24.8,29.8-36.9,61.2-36.9s50.3,12.1,60.1,36.9c10.9,27.6,16.4,69.7,16.4,125.1,0,56.2-5.6,98.6-16.4,126.2Z"/>
  <path class="st0" d="M510.9,826h13.6c-6.7-7.2-13-14.7-18.8-22.6-52.4-70.9-78.6-168.1-78.6-291.4s26.2-220.3,78.6-290.9c52.4-70.6,133.1-105.9,242.2-105.9,108.4,0,188.9,35.5,241.7,106.4,52.8,70.9,79.1,167.7,79.2,290.3,0,123.3-26.4,220.5-79.1,291.4-5.9,7.9-12.2,15.4-18.9,22.6h13.6c4.7-5.3,9.1-10.9,13.4-16.6,53.8-72.4,81.1-172.5,81.1-297.4s-27.3-224-81.1-296.4c-54.5-73.4-138.6-110.5-249.8-110.5s-196.1,37-250.3,110c-53.5,72-80.6,171.9-80.6,296.9s27.1,225,80.6,297.4c4.3,5.8,8.7,11.3,13.4,16.6Z"/>
  <polygon class="st0" points="113.3 826 123.4 826 123.4 354.8 10.1 354.8 10.1 132.3 372.6 132.3 372.6 778 382.7 778 382.7 122.2 0 122.2 0 364.9 113.3 364.9 113.3 826"/>
  <path class="st0" d="M208.6,865.6l-86.2,164.4v104.7h-27v-104.7L8.5,865.6h30.4l70.1,139.7,69.7-139.7h30Z"/>
  <path class="st0" d="M274.8,887.6v100.4h102v22.3h-102v102h113.6v22.3h-140.5v-269.4h140.5v22.3h-113.6Z"/>
  <path class="st0" d="M597.4,1070.8h-122.4l-23.5,63.9h-28.5l98.2-265.6h30.4l97.8,265.6h-28.5l-23.5-63.9ZM589.3,1048.5l-53.1-145.5-53.1,145.5h106.2Z"/>
  <path class="st0" d="M835.7,1134.7l-66.6-112.4h-49.7v112.4h-26.9v-269.1h80.8c30,0,52.8,7.2,68.3,21.6,15.6,14.4,23.3,33.2,23.3,56.6,0,19.5-5.6,36.1-16.8,49.8-11.2,13.7-27.7,22.6-49.5,26.8l69.3,114.3h-32.3ZM719.4,1000.3h54.3c21,0,36.9-5.1,47.5-15.4s16-24,16-41.2c0-17.7-5.1-31.4-15.4-41-10.3-9.6-26.4-14.4-48.5-14.4h-53.9v112Z"/>
  <path class="st0" d="M953.3,1128.1c-13.5-6.2-24.1-14.8-31.8-25.8-7.6-10.8-11.9-23.7-12.3-36.9h28.5c1.3,13.1,7.1,24.6,17.3,34.4,10.3,9.9,25.3,14.8,45,14.8s32.7-4.7,43.3-14.1,16-21.2,16-35.6c0-11.5-3-20.8-8.8-27.9-5.9-7-13.4-12.5-21.9-15.8-8.7-3.5-20.8-7.3-36.2-11.4-18-4.9-32.2-9.6-42.7-14.2-10.7-4.7-20-12.2-27-21.6-7.4-9.7-11.2-23-11.2-39.6s3.6-26.2,10.8-37.2c7.2-10.9,17.3-19.4,30.4-25.6,13.1-6.2,28.1-9.2,45-9.2,24.9,0,45,6.1,60.2,18.3s24.1,27.9,26.4,47.2h-29.2c-1.8-11-7.8-20.8-18.1-29.4-10.3-8.6-24.1-12.9-41.6-12.9s-29.6,4.3-40.4,12.9c-10.8,8.6-16.2,20.3-16.2,35.2s3,20.4,8.8,27.3c6,7,13.6,12.4,22.1,15.8,8.8,3.6,20.8,7.4,36,11.5,17.4,4.9,31.6,9.7,42.3,14.4,10.8,4.8,20.2,12.3,27.3,21.8,7.4,9.8,11.2,22.8,11.2,39.3,0,12.6-3.5,25-10,35.8-6.7,11.3-16.5,20.4-29.6,27.3-13.1,6.9-28.8,10.3-47,10.4-17.7,0-33.3-3.1-46.8-9.3Z"/>
</svg>